<svg width="512" height="512" viewBox="0 0 512 512" fill="none" xmlns="http://www.w3.org/2000/svg">
  <!-- Fondo con el color terracota del tema -->
  <rect width="512" height="512" rx="128" fill="#c86d3d"/>

  <!-- Icono CRM estilizado -->
  <g transform="translate(100, 100)">
    <!-- C -->
    <path d="M40 60 Q40 20, 80 20 L120 20 Q160 20, 160 60 L160 100 Q160 140, 120 140 L80 140 Q40 140, 40 100 Z"
          fill="none" stroke="#fef9f3" stroke-width="20" stroke-linecap="round"/>

    <!-- R -->
    <path d="M200 140 L200 20 L260 20 Q300 20, 300 60 Q300 100, 260 100 L200 100 M260 100 L300 140"
          fill="none" stroke="#fef9f3" stroke-width="20" stroke-linecap="round" stroke-linejoin="round"/>

    <!-- M -->
    <path d="M40 240 L40 320 M40 240 L80 280 M80 280 L120 240 M120 240 L120 320"
          fill="none" stroke="#fef9f3" stroke-width="20" stroke-linecap="round" stroke-linejoin="round"/>
  </g>

  <!-- Ícono de gráfico/negocio -->
  <g transform="translate(150, 280)">
    <rect x="20" y="80" width="40" height="60" fill="#fef9f3" rx="8"/>
    <rect x="80" y="40" width="40" height="100" fill="#fef9f3" rx="8"/>
    <rect x="140" y="20" width="40" height="120" fill="#fef9f3" rx="8"/>
  </g>
</svg>
